<svg width="374" height="375" viewBox="0 0 374 375" fill="none" xmlns="http://www.w3.org/2000/svg">
<path fill-rule="evenodd" clip-rule="evenodd" d="M300.389 230.564C290.073 266.093 270.521 303.246 234.938 313.287C200.462 323.016 169.4 296.206 139.941 275.843C112.092 256.592 81.7276 236.854 76.0486 203.455C69.9583 167.637 84.6625 130.898 111.048 105.918C137.018 81.3329 173.736 71.6472 208.966 77.621C242.458 83.2999 269.078 106.503 286.514 135.671C303.763 164.528 309.77 198.258 300.389 230.564Z" fill="url(#paint0_linear_2_152)"/>
<path d="M307.065 207.51C151.633 189.434 160.683 236.421 184.637 262.174C187.338 277.473 224.033 272.791 242.042 268.538C245.298 262.986 256.937 251.41 277.447 249.52C297.957 247.629 295.143 242.376 291.173 239.986C321.908 233.586 308.98 229.73 298.674 228.602C387.813 225.409 336.275 210.447 307.065 207.51Z" fill="#D9D9D9"/>
<path d="M310.967 209.346C152.488 193.02 163.193 240.278 188.355 265.948C191.591 281.339 228.717 276.171 246.875 271.663C250.004 266.026 261.456 254.214 282.23 252.058C303.004 249.902 299.977 244.641 295.867 242.28C326.884 235.452 313.626 231.722 303.121 230.711C380.839 219.868 340.734 211.95 310.967 209.346Z" fill="url(#paint1_linear_2_152)"/>
<line x1="1.5" y1="-1.5" x2="29.5388" y2="-1.5" transform="matrix(-0.93696 0.349437 0.349437 0.93696 170.507 284.161)" stroke="#FF6B0A" stroke-width="3" stroke-linecap="round"/>
<path d="M130.125 299.034L141.626 292.357" stroke="#FF6B0A" stroke-width="3" stroke-linecap="round"/>
<path d="M132.839 292.337L141.612 291.775" stroke="#FF6B0A" stroke-width="3" stroke-linecap="round"/>
<path d="M134.26 303.376L142.634 292.52" stroke="#FF6B0A" stroke-width="3" stroke-linecap="round"/>
<path d="M75.7222 182.901C231.899 192.636 214.671 237.278 186.534 258.382C181.167 272.961 145.881 261.855 128.91 254.479C126.688 248.438 117.283 234.984 97.4326 229.491C77.5819 223.998 81.281 219.327 85.6118 217.678C56.496 205.936 69.9028 204.43 80.2457 205.145C-6.91857 186.217 46.4542 180.618 75.7222 182.901Z" fill="#D9D9D9"/>
<path d="M71.1872 186.071C230.052 198.069 211.147 242.685 181.837 263.493C175.927 278.067 140.303 266.406 123.23 258.753C121.149 252.652 111.97 238.998 91.9061 233.197C71.8422 227.396 75.7529 222.754 80.2162 221.158C50.8989 208.946 64.6071 207.623 75.1258 208.488C0.556257 184.053 41.4294 183.362 71.1872 186.071Z" fill="url(#paint2_linear_2_152)"/>
<path d="M238.278 241.304C231.559 272.636 186.361 320.104 59.3242 259.323C120.253 233.32 241.344 193.31 238.278 241.304Z" fill="url(#paint3_linear_2_152)"/>
<path d="M187.249 159.281C181.204 144.772 189.768 139.129 194.806 138.121C198.585 140.641 212.036 145.679 205.386 145.679C198.736 145.679 200.6 154.747 202.363 159.281C235.01 203.415 215.966 228.051 206.142 234.852C194.806 230.318 175.914 219.889 191.028 214.448C209.92 207.647 194.806 177.418 187.249 159.281Z" fill="white"/>
<ellipse cx="180.499" cy="271.028" rx="10.8225" ry="41.9399" transform="rotate(74.2873 180.499 271.028)" fill="url(#paint4_radial_2_152)"/>
<line x1="1.5" y1="-1.5" x2="29.5389" y2="-1.5" transform="matrix(-0.978284 0.20727 0.20727 0.978284 154.914 282.434)" stroke="#FF6B0A" stroke-width="3" stroke-linecap="round"/>
<path d="M113.038 292.491L125.236 287.197" stroke="#FF6B0A" stroke-width="3" stroke-linecap="round"/>
<path d="M116.512 286.155L125.291 286.617" stroke="#FF6B0A" stroke-width="3" stroke-linecap="round"/>
<path d="M116.64 297.285L126.219 287.476" stroke="#FF6B0A" stroke-width="3" stroke-linecap="round"/>
<path d="M228.694 167.049C207.263 178.867 197.315 171.973 195.02 167.049C179.372 157.745 183.002 125.989 209.792 125.989C236.581 125.989 255.484 152.277 228.694 167.049Z" fill="white"/>
<path d="M214.013 158.378L217.425 156.181C223.554 152.235 230.941 150.735 238.124 151.979C238.53 152.049 238.856 152.353 238.954 152.753L246.005 181.308C246.461 183.154 244.325 184.535 242.829 183.361L213.906 160.673C213.143 160.075 213.198 158.903 214.013 158.378Z" fill="#DF5B04"/>
<path d="M213.404 158.215L216.201 156.476C222.795 152.375 230.649 150.796 238.315 152.032C238.615 152.08 238.883 152.245 239.062 152.491L256.72 176.785C257.934 178.455 256.128 180.646 254.256 179.773L213.558 160.784C212.505 160.293 212.417 158.829 213.404 158.215Z" fill="#FF6B0A"/>
<circle cx="2.75405" cy="2.75405" r="2.75405" transform="matrix(-1 0 0 1 240.837 142.012)" fill="#797979"/>
<circle cx="2.75405" cy="2.75405" r="2.75405" transform="matrix(-1 0 0 1 212.545 144.766)" fill="#797979"/>
<path d="M229.749 110.37L229.125 107.081L189.803 114.537L193.186 132.377L194.568 132.115L227.362 127.978L232.508 124.92L230.157 112.52L230.35 112.509L230.321 110.367L229.749 110.37Z" fill="#373500"/>
<ellipse cx="20.5856" cy="2.04591" rx="20.5856" ry="2.04591" transform="matrix(-0.982491 0.186312 0.186312 0.982491 229.949 108.362)" fill="#0C0632"/>
<path d="M232.974 124.891C246.371 125.663 259.088 143.001 203.201 133.85L232.974 124.891Z" fill="#373500"/>
<path d="M233.067 124.746C230.982 130.951 197.172 137.032 192.602 132.419L189.921 118.073C195.884 118.879 206.492 113.498 215.663 115.07L227.378 125.493L230.322 110.367L233.067 124.746Z" fill="#494600"/>
<ellipse cx="20.0071" cy="2.04591" rx="20.0071" ry="2.04591" transform="matrix(-0.982491 0.186312 0.186312 0.982491 228.792 105.322)" fill="#373500"/>
<ellipse cx="20.2886" cy="2.04591" rx="20.2886" ry="2.04591" transform="matrix(-0.982491 0.186312 0.186312 0.982491 229.366 108.472)" fill="#373500"/>
<path d="M225.428 112.668C225.368 112.743 225.317 112.802 225.276 112.867C224.927 113.389 224.787 113.9 224.889 114.513C224.932 114.773 225.006 115.031 225.066 115.286C225.119 115.51 225.171 115.731 225.22 115.957C225.232 116.016 225.249 116.037 225.316 116.022C225.457 115.985 225.597 116.007 225.701 116.119C225.794 116.217 225.814 116.336 225.776 116.458C225.74 116.584 225.645 116.663 225.526 116.71C225.466 116.732 225.417 116.722 225.364 116.678C224.959 116.344 224.646 115.941 224.411 115.475C224.218 115.088 224.105 114.672 223.978 114.266C223.905 114.035 223.821 113.803 223.756 113.569C223.712 113.422 223.659 113.287 223.573 113.16C223.487 113.033 223.376 112.928 223.234 112.848C223.168 112.994 223.145 113.146 223.167 113.297C223.191 113.437 223.233 113.58 223.276 113.714C223.324 113.859 223.391 113.998 223.445 114.136C223.591 114.504 223.74 114.871 223.874 115.243C224.092 115.865 224.143 116.501 224.015 117.147C224.001 117.234 223.951 117.274 223.872 117.294C223.673 117.347 223.475 117.251 223.41 117.071C223.35 116.902 223.445 116.697 223.631 116.621C223.698 116.593 223.694 116.567 223.665 116.514C223.525 116.235 223.386 115.95 223.249 115.67C223.09 115.352 222.951 115.027 222.702 114.764C222.374 114.416 222.009 114.235 221.539 114.128C221.505 114.122 221.471 114.116 221.422 114.107C221.435 114.143 221.444 114.167 221.452 114.191C222.007 115.74 222.539 117.225 223.093 118.774C223.125 118.862 223.125 118.862 223.21 118.831C223.528 118.717 223.85 118.602 224.168 118.488C224.224 118.468 224.254 118.475 224.286 118.527C224.531 118.918 224.875 119.192 225.32 119.331C225.412 119.361 225.502 119.41 225.594 119.45C225.7 119.177 225.903 118.942 225.968 118.643C226.021 118.398 226.046 118.15 226.007 117.902C226.001 117.845 226.019 117.821 226.067 117.803C226.394 117.686 226.716 117.571 227.042 117.454C227.098 117.434 227.118 117.413 227.095 117.349C226.538 115.792 226.002 114.296 225.444 112.739C225.449 112.728 225.443 112.712 225.428 112.668ZM225.328 113.507C225.338 113.508 225.35 113.504 225.359 113.505C225.37 113.533 225.38 113.561 225.39 113.589C225.658 114.337 225.904 115.026 226.172 115.774C226.217 115.898 226.217 115.898 226.088 115.945C226.039 115.962 226.011 115.958 225.982 115.915C225.88 115.784 225.744 115.707 225.585 115.682C225.517 115.67 225.496 115.637 225.484 115.578C225.421 115.289 225.361 114.995 225.287 114.71C225.212 114.411 225.199 114.172 225.253 113.868C225.272 113.744 225.304 113.629 225.328 113.507ZM222.014 114.708C222.022 114.705 222.025 114.699 222.033 114.696C222.069 114.72 222.104 114.743 222.136 114.768C222.379 114.952 222.575 115.094 222.717 115.363C222.895 115.706 223.064 116.052 223.237 116.396C223.262 116.442 223.262 116.478 223.224 116.523C223.118 116.647 223.06 116.79 223.061 116.956C223.061 117.033 223.022 117.065 222.91 117.083C222.842 117.094 222.849 117.037 222.836 117.001C222.563 116.24 222.312 115.54 222.039 114.776C222.026 114.753 222.017 114.729 222.014 114.708ZM225.7 117.018C225.719 117.007 225.741 116.994 225.767 116.976C226 116.829 226.153 116.635 226.141 116.346C226.14 116.305 226.15 116.283 226.188 116.274C226.216 116.264 226.244 116.254 226.272 116.244C226.313 116.23 226.334 116.24 226.349 116.28C226.456 116.58 226.565 116.884 226.669 117.186C226.674 117.202 226.655 117.25 226.639 117.255C226.423 117.337 226.202 117.417 225.983 117.49C225.966 117.496 225.924 117.48 225.914 117.465C225.844 117.319 225.773 117.173 225.7 117.018ZM223.976 117.636C224.017 117.801 224.052 117.961 224.092 118.123C224.103 118.168 224.071 118.18 224.039 118.191C223.834 118.265 223.631 118.333 223.427 118.41C223.362 118.433 223.334 118.417 223.316 118.355C223.224 118.086 223.124 117.819 223.027 117.547C222.982 117.423 222.982 117.423 223.107 117.378C223.143 117.365 223.175 117.353 223.203 117.393C223.36 117.603 223.579 117.669 223.829 117.657C223.882 117.651 223.932 117.638 223.976 117.636ZM224.426 116.201C224.649 116.469 224.869 116.729 225.143 116.947C225.048 117.076 224.96 117.197 224.866 117.317C224.854 117.335 224.811 117.341 224.787 117.336C224.659 117.31 224.537 117.272 224.409 117.246C224.37 117.237 224.355 117.22 224.362 117.177C224.423 116.879 224.429 116.579 224.421 116.275C224.425 116.251 224.425 116.224 224.426 116.201ZM225.643 117.964C225.734 118.167 225.662 118.662 225.547 118.762C225.542 118.759 225.536 118.757 225.536 118.757C225.462 118.548 225.383 118.342 225.314 118.136C225.308 118.12 225.328 118.086 225.343 118.076C225.441 118.032 225.543 118 225.643 117.964ZM225.212 118.891C225.003 118.853 224.648 118.497 224.619 118.327C224.708 118.295 224.804 118.26 224.893 118.228C224.945 118.21 224.969 118.224 224.986 118.272C225.046 118.44 225.106 118.608 225.166 118.776C225.183 118.811 225.196 118.847 225.212 118.891ZM225.389 117.698C225.337 117.717 225.282 117.741 225.227 117.752C225.211 117.758 225.167 117.737 225.167 117.724C225.128 117.539 225.186 117.347 225.341 117.246C225.374 117.225 225.397 117.226 225.418 117.259C225.473 117.361 225.524 117.465 225.58 117.571C225.598 117.61 225.58 117.635 225.544 117.648C225.494 117.661 225.442 117.68 225.389 117.698ZM224.648 117.964C224.6 117.981 224.556 117.997 224.507 118.014C224.46 118.036 224.425 118.026 224.414 117.971C224.391 117.866 224.367 117.762 224.347 117.656C224.338 117.605 224.358 117.585 224.412 117.583C224.581 117.573 224.776 117.688 224.836 117.842C224.842 117.858 224.824 117.896 224.809 117.906C224.754 117.93 224.701 117.945 224.648 117.964Z" fill="#FFD500"/>
<ellipse cx="10.2219" cy="11.1574" rx="10.2219" ry="11.1574" transform="matrix(-0.761754 0.647867 0.647867 0.761754 201.593 144.766)" fill="url(#paint5_radial_2_152)"/>
<defs>
<linearGradient id="paint0_linear_2_152" x1="301.374" y1="229.44" x2="81.9208" y2="149.115" gradientUnits="userSpaceOnUse">
<stop stop-color="#A5DEFF"/>
<stop offset="1" stop-color="#BDE7FF"/>
</linearGradient>
<linearGradient id="paint1_linear_2_152" x1="252.067" y1="204.226" x2="259.673" y2="271.624" gradientUnits="userSpaceOnUse">
<stop stop-color="white"/>
<stop offset="1" stop-color="#F5F5F5"/>
</linearGradient>
<linearGradient id="paint2_linear_2_152" x1="130.063" y1="191.463" x2="110.641" y2="256.449" gradientUnits="userSpaceOnUse">
<stop stop-color="white"/>
<stop offset="1" stop-color="#F9F9F9"/>
</linearGradient>
<linearGradient id="paint3_linear_2_152" x1="186.299" y1="225.57" x2="111.066" y2="276.698" gradientUnits="userSpaceOnUse">
<stop stop-color="white"/>
<stop offset="1" stop-color="#F5F5F5"/>
</linearGradient>
<radialGradient id="paint4_radial_2_152" cx="0" cy="0" r="1" gradientUnits="userSpaceOnUse" gradientTransform="translate(180.499 271.028) rotate(90) scale(41.9399 10.8225)">
<stop stop-color="#E8E8E8"/>
<stop offset="1" stop-color="#EFEFEF" stop-opacity="0.5"/>
</radialGradient>
<radialGradient id="paint5_radial_2_152" cx="0" cy="0" r="1" gradientUnits="userSpaceOnUse" gradientTransform="translate(10.2219 11.1574) rotate(90) scale(11.1574 10.2219)">
<stop stop-color="#FFBBBB"/>
<stop offset="1" stop-color="#FFBBBB" stop-opacity="0"/>
</radialGradient>
</defs>
</svg>
